<?xml version="1.0" ?><svg style="enable-background:new 0 0 460 460;" version="1.1" viewBox="0 0 460 460" xml:space="preserve" xmlns="http://www.w3.org/2000/svg" xmlns:xlink="http://www.w3.org/1999/xlink"><style type="text/css">
	.st0{display:none;fill:#DFA9AC;}
	.st1{fill:#DFA9AC;}
</style><g id="Layer_1"/><g id="Layer_2"><g><path class="st0" d="M0.4,512.4c0-170.7,0-341.3,0-512c170.7,0,341.3,0,512,0c0,170.7,0,341.3,0,512    C341.8,512.4,171.1,512.4,0.4,512.4z"/><path class="st1" d="M277.2,230.1c0.6-0.9,1.2-1.8,1.9-2.7c5.9-8.4,13-15.6,21.7-21.1c7.2-4.5,15-7.3,23.4-8.8    c5-0.9,10-1.4,15-1.4c7.8-0.1,15.6,0.6,23.2,2.5c5.7,1.4,11.3,3.4,16.6,6c5.6,2.8,10.8,6.3,15.4,10.6c5.4,4.9,10,10.5,13.7,16.8    c2.5,4.2,4.6,8.6,6.4,13.2c2.7,7.1,4.6,14.5,5.9,22c1.3,7.8,1.9,15.6,1.9,23.5c-0.1,40.7,0,81.3,0,122c0,0.4,0,0.7,0,1.1    c0.1,1-0.3,1.5-1.4,1.4c-0.4,0-0.7,0-1.1,0c-22,0-44.1,0-66.1,0c-2.4,0-2.7,0.5-2.7-2.7c0-36.6,0-73.1,0-109.7    c0-4.8-0.1-9.5-0.8-14.3c-0.8-6.4-2.1-12.6-5-18.4c-4.7-9.3-12-15.2-22.3-17c-7.1-1.2-14-0.9-20.8,1.6c-6,2.2-11.1,5.8-15.2,10.6    c-2.5,2.9-4.6,6.1-6.4,9.6c-2.3,4.5-3.4,9.3-3.6,14.3c-0.1,3-0.2,6-0.2,9c0,38,0,75.9,0,113.9c0,3.8-0.2,3.1-3.2,3.1    c-21.8,0-43.5,0-65.3,0c-0.3,0-0.6,0-0.9,0c-2.1,0-2.1,0-2.1-2.2c0-11.4,0-22.9,0.1-34.3c0.1-19.3,0.2-38.5,0.2-57.8    c0-34,0.2-68-0.1-102c0-5-0.1-10.1-0.1-15.1c0-0.5,0-1,0-1.5c0-0.8,0.3-1.2,1.2-1.2c0.5,0,1,0,1.5,0c22,0,43.9,0,65.9,0    c2.8,0,2.8,0,2.8,2.8c0,8,0,16.1,0,24.1c0,0.7,0,1.4,0,2.1C276.9,230,277.1,230,277.2,230.1z"/><path class="st1" d="M95,308.1c0-34.8,0-69.5,0-104.3c0-2.9,0-2.9,2.9-2.9c21.9,0,43.8,0,65.7,0c0.4,0,0.7,0,1.1,0    c1.5,0.1,1.6,0.2,1.6,1.6c0,0.5,0,1,0,1.5c0,69.3,0,138.6,0,207.9c0,3.5,0.1,3.1-3.1,3.1c-21.7,0-43.4,0-65.1,0c-0.5,0-1,0-1.5,0    c-1.4-0.1-1.6-0.2-1.7-1.6c0-0.5,0-1,0-1.5C95,377.3,95,342.7,95,308.1z"/><path class="st1" d="M129.1,172.1c-6.3,0-13.6-1.5-20.3-5.4c-9.2-5.3-15-13.2-17.1-23.6c-2-9.9-0.7-19.4,4.8-28    c4.6-7.2,11.1-11.9,19.1-14.6c5.6-1.9,11.4-2.9,17.4-2.6c7.8,0.4,15.2,2.2,21.8,6.5c7.9,5.2,13,12.5,15.1,21.6    c2.7,11.6,0.8,22.3-6.6,31.8c-4.5,5.8-10.4,9.6-17.3,11.9C140.9,171.4,135.8,172.1,129.1,172.1z"/></g></g></svg>