<?xml version="1.0" ?><svg viewBox="0 0 20.718 22.367" xmlns="http://www.w3.org/2000/svg"><g data-name="Layer 2" id="Layer_2"><g data-name="Layer 1" id="Layer_1-2"><path d="M18.39,15.029c.229,3.124.582,4.571-3.53,4.591a.724.724,0,0,0-.819.768v1.649a.34.34,0,0,1-.68,0V20.388a1.381,1.381,0,0,1,1.5-1.448c1.614,0,2.764-.342,2.862-.851a13.262,13.262,0,0,0-.036-3.233A.338.338,0,0,1,17.9,14.5a15.351,15.351,0,0,0,1.833-.871c.528-.327.257-.633.01-1a8.2,8.2,0,0,1-2.006-3.465c-.467-11.308-16.58-11.3-17.046,0-.179,3,2.125,5.563,3.343,8.01a15.945,15.945,0,0,1,.752,4.867.34.34,0,0,1-.68.007,15.677,15.677,0,0,0-.69-4.594c-1.3-2.509-3.595-5.192-3.4-8.29.5-12.185,17.852-12.217,18.406-.042a8.7,8.7,0,0,0,1.845,3.069C21.644,13.859,19.551,14.509,18.39,15.029ZM14.8,15.15l-2.926-.634a5.995,5.995,0,1,1,2.7-2.7l.634,2.927a.342.342,0,0,1-.332.412A.371.371,0,0,1,14.8,15.15ZM9.214,3.833a5.315,5.315,0,1,0,2.459,10.024,19.76,19.76,0,0,1,2.76.517l-.549-2.53A5.409,5.409,0,0,0,9.214,3.833Zm0,4.983c-.931,0-1.127-.54-1.127-.992-.009-1.1,1.785-1.352,2.183-.344a.34.34,0,0,0,.446.181c.7-.469-.618-1.462-1.163-1.477,0-.275.07-.765-.339-.766s-.34.491-.34.765A1.665,1.665,0,0,0,9.212,9.5c.935,0,1.131.539,1.131.992.009,1.105-1.785,1.352-2.183.344a.341.341,0,0,0-.445-.182c-.7.468.613,1.459,1.157,1.477,0,.275-.071.766.34.766s.34-.49.339-.764A1.665,1.665,0,0,0,9.212,8.816Zm-3.395,0a.34.34,0,0,0,0,.68A.34.34,0,0,0,5.817,8.816Zm6.8,0a.34.34,0,0,0,0,.68A.34.34,0,0,0,12.612,8.816Z" data-name="financial adviser" id="financial_adviser"/></g></g></svg>