<?xml version="1.0" ?><svg viewBox="0 0 20.707 22.423" xmlns="http://www.w3.org/2000/svg"><g data-name="Layer 2" id="Layer_2"><g data-name="Layer 1" id="Layer_1-2"><path d="M20.252,12.23c-2.141-2.764-1.691-2.594-1.979-4.594h0a.341.341,0,0,0-.215-.261L12.261,5.2V.339a.34.34,0,0,0-.68,0V2H6.825V.339a.34.34,0,0,0-.679,0V5.2L.349,7.375a.344.344,0,0,0-.216.261h0A9.237,9.237,0,0,0,1.22,13.784c.656,1.148,1.7,2.652,2.184,3.709A15.674,15.674,0,0,1,4.1,22.087a.34.34,0,0,0,.679-.007,15.945,15.945,0,0,0-.752-4.867C2.588,14.5.094,11.549.75,8.162l8.113,3.044V22.084a.34.34,0,0,0,.68,0V11.206l8.113-3.044c.051.367.062.74.078,1.11a8.761,8.761,0,0,0,2,3.4,1,1,0,0,1,.28.669c-.008.045-.032.184-.29.334a15.431,15.431,0,0,1-1.833.871.339.339,0,0,0-.214.361,13.319,13.319,0,0,1,.036,3.233c-.1.509-1.248.851-2.862.851a1.382,1.382,0,0,0-1.5,1.449v1.648a.34.34,0,0,0,.68,0V20.436a.725.725,0,0,1,.819-.769c4.123-.02,3.756-1.474,3.53-4.591C19.54,14.556,21.633,13.907,20.252,12.23ZM6.146,9.461,1.435,7.694,6.146,5.927Zm5.435.255L9.2,10.608,6.825,9.716v-1.6h4.756Zm0-2.277H6.825V5.4h4.756Zm0-2.719H6.825V2.682h4.756Zm.68,4.741V5.927l4.71,1.767Z" data-name="thinking outside the box" id="thinking_outside_the_box"/></g></g></svg>