<?xml version="1.0" ?><svg viewBox="0 0 22.434 22.423" xmlns="http://www.w3.org/2000/svg"><g data-name="Layer 2" id="Layer_2"><g data-name="Layer 1" id="Layer_1-2"><path d="M20.106,15.076c.233,3.107.575,4.579-3.531,4.59a.725.725,0,0,0-.819.769v1.648a.34.34,0,0,1-.679,0V20.435a1.381,1.381,0,0,1,1.5-1.448c1.615,0,2.765-.342,2.862-.851A13.264,13.264,0,0,0,19.4,14.9a.34.34,0,0,1,.215-.361,15.545,15.545,0,0,0,1.832-.872c.528-.325.26-.633.011-1A8.169,8.169,0,0,1,19.453,9.2a8.528,8.528,0,0,0-11.738-7.9A.34.34,0,0,1,7.459.677,9.209,9.209,0,0,1,20.133,9.161a8.675,8.675,0,0,0,1.845,3.068C23.359,13.906,21.266,14.555,20.106,15.076Zm-4.931-6.7A17.333,17.333,0,0,1,7.587,22.423,17.332,17.332,0,0,1,0,8.374V5.6a.34.34,0,0,1,.208-.313L7.455,2.232a.345.345,0,0,1,.264,0l7.248,3.053a.34.34,0,0,1,.208.313Zm-4.146-.366L7.587,6.577,4.146,8.008a11.663,11.663,0,0,0,3.441,9.409A11.66,11.66,0,0,0,11.029,8.008ZM7.247,5.982V3.057l-6.175,2.6L3.838,7.4ZM14.1,5.658l-6.175-2.6V5.982L11.337,7.4ZM1.846,14.223l2.211-1.172a14.322,14.322,0,0,1-.591-5.082L.679,6.214A18.566,18.566,0,0,0,1.846,14.223Zm5.4,7.152V18.021A11.36,11.36,0,0,1,4.289,13.7L2.113,14.85A18.23,18.23,0,0,0,7.247,21.375Zm5.815-6.525L10.886,13.7a11.351,11.351,0,0,1-2.959,4.324v3.354A18.222,18.222,0,0,0,13.062,14.85ZM14.5,6.214,11.709,7.969a14.322,14.322,0,0,1-.591,5.082l2.21,1.172A18.551,18.551,0,0,0,14.5,6.214Z" id="protection"/></g></g></svg>