<?xml version="1.0" ?><svg viewBox="0 0 20.718 22.369" xmlns="http://www.w3.org/2000/svg"><g data-name="Layer 2" id="Layer_2"><g data-name="Layer 1" id="Layer_1-2"><path d="M18.39,15.029c.228,3.124.582,4.571-3.531,4.591a.725.725,0,0,0-.819.768v1.648a.34.34,0,0,1-.679,0V20.388a1.381,1.381,0,0,1,1.5-1.448c1.615,0,2.765-.342,2.862-.852a13.2,13.2,0,0,0-.036-3.232.34.34,0,0,1,.214-.362,15.407,15.407,0,0,0,1.834-.871c.529-.326.256-.633.01-1a8.2,8.2,0,0,1-2.006-3.466c-.468-11.307-16.58-11.3-17.046,0-.179,3.005,2.125,5.564,3.343,8.01a15.983,15.983,0,0,1,.752,4.868.34.34,0,0,1-.68.007,15.69,15.69,0,0,0-.691-4.594c-1.3-2.509-3.594-5.192-3.4-8.291.5-12.183,17.851-12.217,18.406-.041a8.693,8.693,0,0,0,1.845,3.069C21.645,13.859,19.55,14.509,18.39,15.029Zm-3.476,1.582L12.063,14.67A6.262,6.262,0,0,1,2.987,9.133c.292-8.244,12.167-8.242,12.458,0v7.2a.342.342,0,0,1-.34.34A.339.339,0,0,1,14.914,16.611Zm-.149-7.478c-.26-7.344-10.837-7.344-11.1,0a5.579,5.579,0,0,0,8.251,4.845.338.338,0,0,1,.357.016l2.49,1.7Zm-2.038-.424c0,2.1-3.2,4.008-3.339,4.089a.341.341,0,0,1-.344,0c-.136-.081-3.339-1.987-3.338-4.089a2.065,2.065,0,0,1,3.51-1.376,2.085,2.085,0,0,1,1.467-.6A2.015,2.015,0,0,1,12.727,8.709Zm-.68,0a1.381,1.381,0,0,0-2.541-.654.353.353,0,0,1-.58,0,1.381,1.381,0,0,0-1.177-.646,1.335,1.335,0,0,0-1.364,1.3c0,1.334,1.9,2.812,2.831,3.4C10.143,11.521,12.047,10.043,12.047,8.709Z" id="emotion"/></g></g></svg>