<?xml version="1.0" ?><svg viewBox="0 0 22.444 19.867" xmlns="http://www.w3.org/2000/svg"><g data-name="Layer 2" id="Layer_2"><g data-name="Layer 1" id="Layer_1-2"><path d="M20.092,15.224a12.823,12.823,0,0,1,0,3.221c-.235,1.232-2.333,1.416-3.563,1.416a.34.34,0,0,1,0-.68c1.633,0,2.8-.346,2.895-.863a13.377,13.377,0,0,0-.036-3.267.341.341,0,0,1,.214-.362,15.188,15.188,0,0,0,1.852-.88c.262-.152.287-.293.3-.34a1.018,1.018,0,0,0-.283-.678,8.256,8.256,0,0,1-2.026-3.5A8.642,8.642,0,0,0,5.136,2.82a.34.34,0,0,1-.449-.51A9.325,9.325,0,0,1,20.119,9.25a8.787,8.787,0,0,0,1.866,3.1C23.38,14.046,21.258,14.7,20.092,15.224Zm-3.109.083a1.1,1.1,0,0,0,.173-1.79,7.319,7.319,0,0,1-1.541-2.556A7.8,7.8,0,1,0,1.053,14.9c.917,1.648,2.009,2.756,2.225,4.67a.34.34,0,0,0,.672-.1c-.228-2.024-1.346-3.2-2.318-4.923A7.167,7.167,0,0,1,7.813,3.88,7.13,7.13,0,0,1,14.935,11a6.927,6.927,0,0,0,1.7,2.952c.189.287.413.516,0,.764a13,13,0,0,1-1.536.73.339.339,0,0,0-.214.361,11.093,11.093,0,0,1,.031,2.7c-.075.4-1.045.674-2.357.674a.34.34,0,1,0,0,.679c3.416-.008,3.251-1.217,3.03-3.884A12.733,12.733,0,0,0,16.983,15.307Zm-4.771-4.415v4.983a.343.343,0,0,1-.531.281L9.758,14.847a4.415,4.415,0,1,1,2.454-3.955Zm-.679,0a3.738,3.738,0,1,0-1.918,3.263.343.343,0,0,1,.357.015l1.561,1.063Z" id="teamwork"/></g></g></svg>