<?xml version="1.0" ?><svg viewBox="0 0 20.733 22.388" xmlns="http://www.w3.org/2000/svg"><g data-name="Layer 2" id="Layer_2"><g data-name="Layer 1" id="Layer_1-2"><path d="M4.049,17.183A15.988,15.988,0,0,1,4.8,22.05a.34.34,0,0,1-.68.007,15.666,15.666,0,0,0-.692-4.594C2.044,14.843-.318,12.011.036,8.755A.345.345,0,0,1,.39,8.43a.34.34,0,0,1,.325.354,9.7,9.7,0,0,0,2,6.076A21.978,21.978,0,0,1,4.049,17.183ZM20.278,12.2a10.187,10.187,0,0,1-1.715-2.687.34.34,0,0,0-.631.251,10.754,10.754,0,0,0,1.827,2.874c.173.242.55.711-.011,1a15.454,15.454,0,0,1-1.832.871.34.34,0,0,0-.215.361,13.262,13.262,0,0,1,.036,3.233c-.1.509-1.247.851-2.862.851a1.38,1.38,0,0,0-1.5,1.448v1.649a.34.34,0,0,0,.679,0V20.405a.724.724,0,0,1,.819-.768c4.122-.021,3.755-1.474,3.531-4.591C19.566,14.526,21.659,13.877,20.278,12.2Zm-5.491-.036-4.28,10.022a.341.341,0,0,1-.651-.16l.293-3.711.19-2.409-4.84.908a.34.34,0,0,1-.376-.466L9.365,6.262a.342.342,0,0,1,.653.156l-.449,6.188,4.843-.91a.34.34,0,0,1,.375.468Zm-.875.317-4.651.874A.338.338,0,0,1,8.86,13l.33-4.566-3.2,7.6c.08-.006,4.634-.884,4.718-.879a.344.344,0,0,1,.339.367l-.355,4.5ZM3.485,9.512H6.434a.34.34,0,1,0,0-.679H3.485A2.269,2.269,0,1,1,5.754,6.564a.34.34,0,1,0,.679,0A2.949,2.949,0,0,0,4.754,3.907a3.493,3.493,0,1,1,6.438,2.1.339.339,0,1,0,.574.362,4.149,4.149,0,0,0,.576-2.953,2.165,2.165,0,1,1,2.7,3.339.339.339,0,0,0-.114.466c.426.512,1.074-.4,1.335-.708a1.165,1.165,0,1,1,.169,2.319H11.418a.34.34,0,1,0,0,.679h5.009A1.848,1.848,0,0,0,16.6,5.826a2.854,2.854,0,0,0-4.465-3.148,4.181,4.181,0,0,0-8.051,1A2.945,2.945,0,1,0,3.485,9.512Z" id="brainstorming"/></g></g></svg>