<?xml version="1.0" ?><svg viewBox="0 0 20.726 22.417" xmlns="http://www.w3.org/2000/svg"><g data-name="Layer 2" id="Layer_2"><g data-name="Layer 1" id="Layer_1-2"><path d="M12.666,11.039a.339.339,0,0,0,0-.48L11.305,9.2c.184-.236,1.554-1.416,1.461-1.6a.337.337,0,0,0-.1-.24l-1.6-1.6a.342.342,0,0,0-.481,0L9.223,7.115,7.862,5.754a.342.342,0,0,0-.481,0l-1.6,1.6a.339.339,0,0,0,0,.48L7.141,9.2,5.78,10.559a.339.339,0,0,0,0,.48l1.6,1.6a.34.34,0,0,0,.481,0l1.361-1.361c.233.182,1.418,1.555,1.6,1.461a.335.335,0,0,0,.24-.1Zm-3.2-.48a.339.339,0,0,0-.48,0L7.621,11.92,6.5,10.8,7.862,9.437a.339.339,0,0,0,0-.48L6.5,7.6,7.621,6.475,8.983,7.836a.339.339,0,0,0,.48,0l1.362-1.361L11.946,7.6c-.183.235-1.553,1.416-1.461,1.6-.1.18,1.29,1.38,1.461,1.6L10.825,11.92ZM18.4,15.07c.228,3.125.582,4.57-3.531,4.591a.724.724,0,0,0-.819.768v1.648a.34.34,0,1,1-.679,0V20.429a1.381,1.381,0,0,1,1.5-1.448c1.615,0,2.765-.342,2.862-.851a13.262,13.262,0,0,0-.036-3.233.34.34,0,0,1,.214-.361,15.351,15.351,0,0,0,1.833-.871c.558-.294.186-.768.011-1a8.766,8.766,0,0,1-2-3.4C17.4-1.933,1.469-2.216.7,8.963c-.274,3.1,2.072,5.732,3.339,8.243A10.451,10.451,0,0,1,4.7,20.4a1.464,1.464,0,0,0,1.467,1.341h1.24a1.474,1.474,0,0,0,1.473-1.472V16.68a1.445,1.445,0,0,0-1.1-1.422A6.229,6.229,0,1,1,13.542,4.71a6.272,6.272,0,0,1-2.2,10.347.34.34,0,0,1-.232-.639C17,12.226,15.3,3.46,9.006,3.652A5.637,5.637,0,0,0,3.678,8.981,5.563,5.563,0,0,0,7.939,14.6,2.122,2.122,0,0,1,9.563,16.68v3.585a2.154,2.154,0,0,1-2.152,2.152H6.171a2.139,2.139,0,0,1-2.143-1.961,10,10,0,0,0-.6-2.969c-1.351-2.58-3.687-5.343-3.4-8.543C.189,1.094,9.9-2.954,15.548,2.513a9.114,9.114,0,0,1,2.878,6.643,8.693,8.693,0,0,0,1.845,3.068C21.652,13.9,19.559,14.55,18.4,15.07Z" id="failure"/></g></g></svg>