<?xml version="1.0" ?><svg viewBox="0 0 22.434 22.393" xmlns="http://www.w3.org/2000/svg"><g data-name="Layer 2" id="Layer_2"><g data-name="Layer 1" id="Layer_1-2"><path d="M5.75,17.182A15.954,15.954,0,0,1,6.5,22.05a.34.34,0,0,1-.679.007,15.741,15.741,0,0,0-.692-4.594c-1.219-2.4-3.45-4.971-3.4-7.915a.34.34,0,1,1,.679-.027,10.029,10.029,0,0,0,2,5.338A22.1,22.1,0,0,1,5.75,17.182Zm14.356-2.136c.225,3.118.591,4.57-3.531,4.59a.725.725,0,0,0-.819.77v1.647a.34.34,0,0,1-.679,0V20.406a1.381,1.381,0,0,1,1.5-1.449c1.615,0,2.765-.342,2.862-.852a13.272,13.272,0,0,0-.035-3.232.338.338,0,0,1,.214-.361,15.285,15.285,0,0,0,1.832-.872c.258-.149.283-.288.291-.333a.968.968,0,0,0-.28-.669,8.173,8.173,0,0,1-2.006-3.465A8.541,8.541,0,0,0,3.8,4.5h9.223a.34.34,0,0,1,.339.34V22.053a.342.342,0,0,1-.613.2L.066,5.041A.343.343,0,0,1,.34,4.5H3.006C7.764-3.48,20.039-.171,20.133,9.131A8.705,8.705,0,0,0,21.979,12.2C23.36,13.876,21.266,14.526,20.106,15.046ZM12.685,5.179H1.012L12.685,21.02ZM5.371,6.764h5.341a.34.34,0,0,1,.34.34v7.248a.342.342,0,0,1-.614.2L5.1,7.306A.343.343,0,0,1,5.371,6.764Zm.673.679,4.328,5.875V7.443Z" id="skill"/></g></g></svg>