<?xml version="1.0" ?><svg viewBox="0 0 20.718 22.369" xmlns="http://www.w3.org/2000/svg"><g data-name="Layer 2" id="Layer_2"><g data-name="Layer 1" id="Layer_1-2"><path d="M18.39,15.029c.229,3.124.582,4.571-3.531,4.591a.725.725,0,0,0-.819.768v1.648a.34.34,0,0,1-.679,0V20.388a1.381,1.381,0,0,1,1.5-1.448c1.615,0,2.765-.342,2.863-.852a13.241,13.241,0,0,0-.037-3.232A.339.339,0,0,1,17.9,14.5a15.374,15.374,0,0,0,1.832-.871c.53-.326.259-.634.011-1a8.209,8.209,0,0,1-2.006-3.465C17.27-2.152,1.158-2.149.691,9.156c-.179,3,2.125,5.564,3.343,8.01a15.977,15.977,0,0,1,.752,4.867.34.34,0,0,1-.68.007,15.69,15.69,0,0,0-.691-4.594c-1.3-2.509-3.594-5.193-3.4-8.29.5-12.185,17.853-12.217,18.406-.042a8.678,8.678,0,0,0,1.846,3.069C21.643,13.86,19.551,14.509,18.39,15.029ZM9.214,11.987a2.831,2.831,0,0,1,0-5.662A2.831,2.831,0,0,1,9.214,11.987ZM9.214,7a2.152,2.152,0,0,0,0,4.3A2.152,2.152,0,0,0,9.214,7Zm4.01,6.213c-.009.613.288,1.549-.4,1.387l-.983-.379a1.478,1.478,0,0,0-1.766.574c-.222.281-.584,1.1-.857,1.039a.34.34,0,0,1-.285-.156L8.357,14.8a1.477,1.477,0,0,0-1.766-.574l-.982.378c-.692.164-.4-.77-.405-1.386a1.478,1.478,0,0,0-1.092-1.5L3.1,11.444c-.659-.275.142-.866.487-1.359a1.48,1.48,0,0,0,0-1.858C3.238,7.734,2.437,7.144,3.1,6.868L4.112,6.6A1.478,1.478,0,0,0,5.2,5.1c.009-.613-.287-1.549.405-1.387l.982.379a1.478,1.478,0,0,0,1.766-.574l.572-.883c.473-.5.748.342,1.142.883a1.478,1.478,0,0,0,1.766.574c.574-.175,1.387-.756,1.444-.043L13.224,5.1a1.48,1.48,0,0,0,1.091,1.5c.342.126,1.231.214,1.253.494a.337.337,0,0,1-.059.319l-.663.817a1.48,1.48,0,0,0,0,1.858l.663.817c.367.607-.608.614-1.194.813A1.479,1.479,0,0,0,13.224,13.217Zm1.427-2.295-.333-.409a2.3,2.3,0,0,1,.333-3.124l-.511-.136a2.289,2.289,0,0,1-1.565-2.722l-.494.19A2.294,2.294,0,0,1,9.214,3.439l-.287.443a2.288,2.288,0,0,1-3.073.649A2.288,2.288,0,0,1,4.287,7.253l-.51.136.333.41a2.294,2.294,0,0,1-.332,3.123l.509.136a2.29,2.29,0,0,1,1.567,2.723,3.328,3.328,0,0,1,1.26-.333,2.394,2.394,0,0,1,2.1,1.424L9.5,14.43a2.29,2.29,0,0,1,3.074-.649l-.029-.527A2.288,2.288,0,0,1,14.651,10.922Z" data-name="thank green" id="thank_green"/></g></g></svg>