<?xml version="1.0" ?><svg viewBox="0 0 20.728 22.434" xmlns="http://www.w3.org/2000/svg"><g data-name="Layer 2" id="Layer_2"><g data-name="Layer 1" id="Layer_1-2"><path d="M20.273,12.24a8.678,8.678,0,0,1-1.846-3.068,9.2,9.2,0,0,0-18.4-.211c-.286,3.2,2.05,5.963,3.4,8.543a11.422,11.422,0,0,1,.635,3.36,1.7,1.7,0,0,0,1.694,1.57H7.865a1.7,1.7,0,0,0,1.7-1.7V10.878a1.7,1.7,0,1,0-.68,0v9.857a1.02,1.02,0,0,1-1.019,1.019H5.754a1.019,1.019,0,0,1-1.016-.939,12,12,0,0,0-.694-3.592C2.777,14.712.43,12.078.7,8.979c.153-7.27,9.15-11.021,14.378-5.957a8.5,8.5,0,0,1,2.672,6.261,8.775,8.775,0,0,0,2,3.4,1.007,1.007,0,0,1,.279.669c-.007.046-.032.185-.289.334a15.08,15.08,0,0,1-1.833.871.341.341,0,0,0-.214.362,13.366,13.366,0,0,1,.036,3.232c-.1.51-1.248.852-2.863.852a1.381,1.381,0,0,0-1.5,1.448v1.648a.34.34,0,0,0,.68,0V20.446a.724.724,0,0,1,.818-.769c4.115-.02,3.759-1.468,3.531-4.59C19.561,14.566,21.653,13.918,20.273,12.24ZM8.205,9.214a1.019,1.019,0,0,1,2.038,0A1.019,1.019,0,0,1,8.205,9.214ZM6.664,7.134,4.838,5.308l-.479.478L3.834,3.823,5.8,4.349l-.479.478L7.144,6.654C7.461,6.96,6.97,7.45,6.664,7.134Zm5.987,6.944.479-.478L11.3,11.774a.34.34,0,0,1,.48-.481l1.826,1.826.479-.478.526,1.963Zm-5.507-2.3L5.318,13.6l.479.478L3.834,14.6l.525-1.963.479.478,1.826-1.826a.34.34,0,0,1,.48.481Zm4.16-5.12L13.13,4.827l-.479-.478,1.964-.526-.526,1.963-.479-.478L11.784,7.134a.339.339,0,0,1-.48-.48Z" id="opportunities"/></g></g></svg>