<?xml version="1.0" ?><svg viewBox="0 0 22.424 22.368" xmlns="http://www.w3.org/2000/svg"><g data-name="Layer 2" id="Layer_2"><g data-name="Layer 1" id="Layer_1-2"><path d="M10.672,9.545,9.1,11.117l1.572,1.572a.34.34,0,0,1-.481.48L8.62,11.6,7.048,13.169a.339.339,0,0,1-.48-.48L8.14,11.117,6.568,9.545a.339.339,0,0,1,.48-.48L8.62,10.637l1.571-1.572a.34.34,0,0,1,.481.48Zm-6.266,5.3c-.181-.227-.423-.975-.84-.711s.138.8.264,1.07a22.016,22.016,0,0,1,1.292,2.244,15.7,15.7,0,0,1,.691,4.594.34.34,0,0,0,.68-.007,16.014,16.014,0,0,0-.752-4.867A22.181,22.181,0,0,0,4.406,14.844Zm17.563-2.66a8.684,8.684,0,0,1-1.845-3.068c-.336-10.985-15.6-12.553-18.2-1.9a.34.34,0,0,0,.665.143,8.524,8.524,0,0,1,16.857,1.8,8.169,8.169,0,0,0,2.006,3.465,1.012,1.012,0,0,1,.279.669c-.008.045-.032.185-.29.334a15.454,15.454,0,0,1-1.832.871.34.34,0,0,0-.215.361,13.267,13.267,0,0,1,.036,3.233c-.1.509-1.247.851-2.862.851a1.381,1.381,0,0,0-1.5,1.449v1.648a.34.34,0,0,0,.679,0V20.39a.725.725,0,0,1,.819-.769c4.118-.021,3.758-1.47,3.531-4.591C21.258,14.51,23.35,13.861,21.969,12.184ZM16.236,6.772a.34.34,0,0,0,0-.679H5.987a.339.339,0,0,0-.307.194L2.918,12.1A8.461,8.461,0,0,1,2.4,9.157a.34.34,0,0,0-.339-.34H.331a.34.34,0,0,0,0,.68H1.724c-.034.546.591,4.66,1.483,3.576l3-6.3Zm.182,2.28a.339.339,0,0,0-.469.106l-1.732,2.736L12.484,9.158a.34.34,0,0,0-.574.363l1.9,3.008-1.9,3.008a.34.34,0,0,0,.574.364l4.039-6.38A.34.34,0,0,0,16.418,9.052Z" id="education"/></g></g></svg>