<?xml version="1.0" ?><svg viewBox="0 0 20.717 22.376" xmlns="http://www.w3.org/2000/svg"><g data-name="Layer 2" id="Layer_2"><g data-name="Layer 1" id="Layer_1-2"><path d="M18.39,15.029c.229,3.124.582,4.571-3.531,4.59a.725.725,0,0,0-.819.769v1.648a.34.34,0,0,1-.679,0V20.388a1.381,1.381,0,0,1,1.5-1.448c1.615,0,2.765-.342,2.862-.852a13.2,13.2,0,0,0-.036-3.232.341.341,0,0,1,.215-.362,15.2,15.2,0,0,0,1.832-.871c.558-.294.187-.766.011-1a8.215,8.215,0,0,1-2.006-3.465C17.27-2.151,1.158-2.149.691,9.156c-.179,3,2.125,5.563,3.343,8.009a15.952,15.952,0,0,1,.752,4.867.34.34,0,0,1-.68.007,15.653,15.653,0,0,0-.691-4.593c-1.3-2.509-3.594-5.193-3.4-8.29.5-12.184,17.852-12.218,18.406-.042a8.684,8.684,0,0,0,1.845,3.068C21.642,13.86,19.551,14.508,18.39,15.029Zm-6.06-1.79-1.107,8.839a.34.34,0,0,1-.674-.084l.719-5.74H8.138a.34.34,0,0,1,0-.679h3.215l.264-2.108H6.811l1.068,8.527a.34.34,0,0,1-.674.084L6.1,13.244a4.523,4.523,0,0,1-.849-2.9c0-3.2,3.592-6.264,3.745-6.393a.341.341,0,0,1,.438,0C10.634,4.868,15.054,9.538,12.33,13.239Zm-3.6-.452A14.2,14.2,0,0,1,8.571,5.3c-1.717,1.638-3.751,5.094-1.948,7.49Zm.661-7.96c-.349,1.325-1.1,4.956.061,7.96H11.8C13.842,10.061,11.023,6.26,9.39,4.827Z" data-name="creative process" id="creative_process"/></g></g></svg>