<?xml version="1.0" ?><svg viewBox="0 0 20.718 22.369" xmlns="http://www.w3.org/2000/svg"><g data-name="Layer 2" id="Layer_2"><g data-name="Layer 1" id="Layer_1-2"><path d="M18.39,15.029c.228,3.125.584,4.57-3.531,4.59a.726.726,0,0,0-.819.769v1.648a.34.34,0,0,1-.679,0V20.388a1.381,1.381,0,0,1,1.5-1.448c1.615,0,2.765-.342,2.862-.852a13.272,13.272,0,0,0-.035-3.232.34.34,0,0,1,.214-.362,15.166,15.166,0,0,0,1.833-.87c.558-.295.186-.766.01-1a8.184,8.184,0,0,1-2-3.465C17.27-2.151,1.158-2.15.691,9.156c-.179,3,2.125,5.564,3.343,8.01a15.941,15.941,0,0,1,.752,4.867.34.34,0,0,1-.68.007,15.69,15.69,0,0,0-.691-4.594c-1.3-2.509-3.594-5.192-3.4-8.29.5-12.185,17.852-12.217,18.406-.041a8.706,8.706,0,0,0,1.846,3.068C21.644,13.86,19.55,14.509,18.39,15.029Zm-3.853-1.8V11.421a.34.34,0,0,0-.68,0v1.812a.567.567,0,0,1-.566.566H11.479a.34.34,0,0,0,0,.68h1.812A1.247,1.247,0,0,0,14.537,13.233Zm-1.246-9.4H11.479a.34.34,0,0,0,0,.679h1.812a.568.568,0,0,1,.566.567V6.891a.34.34,0,0,0,.68,0V5.079A1.247,1.247,0,0,0,13.291,3.833ZM4.571,6.891V5.079a.568.568,0,0,1,.566-.567H6.949a.34.34,0,0,0,0-.679H5.137A1.247,1.247,0,0,0,3.891,5.079V6.891A.34.34,0,0,0,4.571,6.891ZM6.949,13.8H5.137a.567.567,0,0,1-.566-.566V11.421a.34.34,0,0,0-.68,0v1.812a1.247,1.247,0,0,0,1.246,1.246H6.949A.34.34,0,0,0,6.949,13.8Zm4.417-3.737a1.247,1.247,0,0,1-1.246,1.246H8.308a1.247,1.247,0,0,1-1.246-1.246V8.25A1.247,1.247,0,0,1,8.308,7H10.12A1.247,1.247,0,0,1,11.366,8.25Zm-.68-1.812a.567.567,0,0,0-.566-.566H8.308a.567.567,0,0,0-.566.566v1.812a.567.567,0,0,0,.566.566H10.12a.567.567,0,0,0,.566-.566Zm-1.132-3.4V3.493a.34.34,0,0,0-.68,0V4.852A.34.34,0,0,0,9.554,4.852Zm-.34,8.268a.34.34,0,0,0-.34.339v1.359a.34.34,0,0,0,.68,0V13.459A.34.34,0,0,0,9.214,13.12Zm-6-3.964a.34.34,0,0,0,.34.34H4.911a.34.34,0,0,0,0-.68H3.552A.34.34,0,0,0,3.212,9.156Zm9.966,0a.34.34,0,0,0,.34.34h1.359a.34.34,0,0,0,0-.68H13.518A.34.34,0,0,0,13.178,9.156Z" id="focus"/></g></g></svg>