<?xml version="1.0" ?><svg viewBox="0 0 20.727 22.448" xmlns="http://www.w3.org/2000/svg"><g data-name="Layer 2" id="Layer_2"><g data-name="Layer 1" id="Layer_1-2"><path d="M20.272,12.24a8.693,8.693,0,0,1-1.845-3.068,9.2,9.2,0,0,0-18.4-.211c-.287,3.2,2.049,5.963,3.4,8.543A9.161,9.161,0,0,1,3.992,20.1a2.661,2.661,0,0,0,2.967,2.336,2.608,2.608,0,0,0,2.605-2.605V15.9a3.152,3.152,0,0,0,3.623-3.058V8.647c.285-.018.908.118.906-.339a.341.341,0,0,0-.34-.341H11.828V3.778a.34.34,0,1,0-.679,0V7.967H7.3V3.778a.34.34,0,0,0-.68,0V7.967H4.694a.341.341,0,0,0-.34.341c0,.457.621.321.906.339v4.19A3.153,3.153,0,0,0,8.884,15.9v3.934a1.991,1.991,0,0,1-2.3,1.925,1.925,1.925,0,0,1-1.915-1.727,9.65,9.65,0,0,0-.623-2.8c-.5-1.1-1.549-2.6-2.224-3.783A8.577,8.577,0,0,1,8.741.7a8.563,8.563,0,0,1,9.006,8.511,8.187,8.187,0,0,0,2.006,3.465.971.971,0,0,1,.279.668c-.008.046-.032.185-.29.335a15.267,15.267,0,0,1-1.832.87.341.341,0,0,0-.215.362,13.253,13.253,0,0,1,.036,3.232c-.1.509-1.247.852-2.862.852a1.381,1.381,0,0,0-1.5,1.448v1.648a.34.34,0,0,0,.679,0V20.446a.725.725,0,0,1,.819-.769c4.115-.02,3.758-1.468,3.531-4.59C19.56,14.566,21.653,13.918,20.272,12.24ZM12.508,8.647v2.492H5.94V8.647Zm-4.19,6.569A2.381,2.381,0,0,1,5.94,12.837V11.818h6.568v1.019a2.381,2.381,0,0,1-2.378,2.379Z" data-name="mind power" id="mind_power"/></g></g></svg>