<?xml version="1.0" ?><svg viewBox="0 0 20.718 22.376" xmlns="http://www.w3.org/2000/svg"><g data-name="Layer 2" id="Layer_2"><g data-name="Layer 1" id="Layer_1-2"><path d="M18.39,15.029c.229,3.124.582,4.571-3.53,4.591a.724.724,0,0,0-.819.768v1.649a.34.34,0,0,1-.68,0V20.388a1.381,1.381,0,0,1,1.5-1.448c1.614,0,2.764-.342,2.862-.851a13.262,13.262,0,0,0-.036-3.233A.338.338,0,0,1,17.9,14.5a15.431,15.431,0,0,0,1.833-.871c.528-.327.257-.633.01-1a8.2,8.2,0,0,1-2.006-3.465c-.467-11.307-16.58-11.3-17.046,0-.179,3,2.125,5.563,3.343,8.01a15.945,15.945,0,0,1,.752,4.867.34.34,0,0,1-.68.007,15.677,15.677,0,0,0-.69-4.594c-1.3-2.51-3.595-5.192-3.4-8.29.5-12.184,17.852-12.217,18.406-.042a8.7,8.7,0,0,0,1.845,3.069C21.644,13.859,19.551,14.509,18.39,15.029ZM12.385,4.746h-.566V19.771a2.6,2.6,0,1,1-5.209,0V4.746H6.044a.34.34,0,0,1,0-.68h6.341A.34.34,0,0,1,12.385,4.746Zm-5.1,8.332c1.5.409,2.408-.654,3.85-.27V10.622c-.554-.047-1.353.182-1.358-.34s.8-.293,1.358-.339V7.683c-.554-.046-1.353.183-1.358-.339s.8-.293,1.358-.34V4.746H7.289Zm3.85,6.36c-.554-.047-1.353.182-1.358-.34s.8-.293,1.358-.34V16.5c-.553-.046-1.353.183-1.358-.34s.8-.293,1.358-.34V13.53c-1.038-.455-2.59.629-3.85.261v5.98A1.927,1.927,0,0,0,9.214,21.7,1.978,1.978,0,0,0,11.139,19.438Z" id="research"/></g></g></svg>