<?xml version="1.0" ?><svg viewBox="0 0 22.434 22.423" xmlns="http://www.w3.org/2000/svg"><g data-name="Layer 2" id="Layer_2"><g data-name="Layer 1" id="Layer_1-2"><path d="M5.75,17.213A15.945,15.945,0,0,1,6.5,22.08a.34.34,0,0,1-.679.007,15.71,15.71,0,0,0-.692-4.594c-.615-1.354-1.93-3.058-2.6-4.529a.34.34,0,1,1,.62-.277,20.188,20.188,0,0,0,1.266,2.2A22.108,22.108,0,0,1,5.75,17.213ZM21.979,12.23a8.715,8.715,0,0,1-1.846-3.069,9.2,9.2,0,0,0-17.6-3.719.34.34,0,1,0,.621.277A8.525,8.525,0,0,1,19.454,9.2a8.15,8.15,0,0,0,2,3.465c.249.369.518.677-.011,1a15.2,15.2,0,0,1-1.832.871.339.339,0,0,0-.214.361,13.284,13.284,0,0,1,.035,3.233c-.1.509-1.247.851-2.862.851a1.381,1.381,0,0,0-1.5,1.449v1.648a.34.34,0,0,0,.68,0V20.436a.724.724,0,0,1,.818-.769c4.12-.021,3.757-1.47,3.531-4.591C21.267,14.556,23.36,13.907,21.979,12.23Zm-9.321-.506.42,2.865a.342.342,0,0,1-.336.39H9.118a.342.342,0,0,1-.336-.39L9.2,11.724A3.073,3.073,0,0,1,7.894,9.543H5.416a1.688,1.688,0,1,1-3.029,1.21,1.7,1.7,0,1,1,0-3.1,1.688,1.688,0,1,1,3.03,1.209H7.893a3.056,3.056,0,1,1,4.765,2.861ZM1.7,8.184a1.02,1.02,0,0,0,0,2.039A1.02,1.02,0,0,0,1.7,8.184ZM4.066,9.543a1.019,1.019,0,0,0,0,2.038A1.019,1.019,0,0,0,4.066,9.543Zm0-2.718a1.019,1.019,0,0,0,0,2.038A1.019,1.019,0,0,0,4.066,6.825Zm6.864,0A2.373,2.373,0,0,0,8.587,8.863h3.7a.34.34,0,1,1,0,.679H8.578A2.392,2.392,0,0,0,9.742,11.26a.342.342,0,0,1,.166.344l-.4,2.7h2.837l-.4-2.695a.342.342,0,0,1,.166-.344A2.386,2.386,0,0,0,10.93,6.825Z" data-name="solve the problem" id="solve_the_problem"/></g></g></svg>