<?xml version="1.0" ?><svg fill="#232232" viewBox="0 0 22.434 22.423" xmlns="http://www.w3.org/2000/svg"><g data-name="Layer 2" id="Layer_2"><g data-name="Layer 1" id="Layer_1-2"><path d="M5.75,17.213A15.977,15.977,0,0,1,6.5,22.08a.34.34,0,0,1-.68.007,15.7,15.7,0,0,0-.691-4.594c-.754-1.654-2.362-3.55-2.943-5.406a.34.34,0,0,1,.645-.213,13.652,13.652,0,0,0,1.582,3.015A22.288,22.288,0,0,1,5.75,17.213ZM21.978,12.23a8.693,8.693,0,0,1-1.845-3.068A9.213,9.213,0,0,0,10.93,0a.34.34,0,0,0,0,.68,8.548,8.548,0,0,1,8.53,8.592,8.766,8.766,0,0,0,2,3.4.972.972,0,0,1,.279.669c-.008.045-.032.185-.289.334a15.253,15.253,0,0,1-1.833.871.338.338,0,0,0-.214.361,13.371,13.371,0,0,1,.036,3.233c-.1.509-1.248.851-2.863.851a1.381,1.381,0,0,0-1.5,1.449v1.648a.34.34,0,0,0,.68,0V20.436a.724.724,0,0,1,.818-.769c4.108-.011,3.762-1.486,3.531-4.591C21.266,14.556,23.36,13.907,21.978,12.23Zm-6.434,4.7-3.081-2.2H6.682a.34.34,0,0,1-.339-.34V9.739H3.619l-3.082,2.2A.342.342,0,0,1,0,11.665V.34A.34.34,0,0,1,.34,0H9.4a.34.34,0,0,1,.339.34V4.984h6a.34.34,0,0,1,.34.339V16.648a.341.341,0,0,1-.538.277ZM9.06,9.06V.68H.679V11.005L3.313,9.123a.342.342,0,0,1,.2-.063Zm6.342-3.4H9.739V9.4a.339.339,0,0,1-.339.339H7.022v4.3h5.549a.343.343,0,0,1,.2.063L15.4,15.988ZM2.365,4.856c-.317.306.174.8.48.48S2.673,4.549,2.365,4.856Zm2.505-.1a.34.34,0,0,0,0,.68A.34.34,0,0,0,4.87,4.757Zm2.025.1c-.317.306.174.8.48.48S7.2,4.549,6.9,4.856Z" id="communication"/></g></g></svg>